<svg width="32" height="20" viewBox="0 0 32 20" fill="none" xmlns="http://www.w3.org/2000/svg">
<path d="M24.2887 18.7499L24.5329 16.9708L24.6441 16.1609L29.5092 16.8276C29.9902 16.8937 30.4337 16.5575 30.4998 16.0767C30.5657 15.5958 30.2293 15.1528 29.7481 15.0869L24.883 14.4202L25.4853 10.0331L30.3503 10.6998C30.8313 10.7658 31.2749 10.4296 31.3409 9.94883C31.407 9.46792 31.0704 9.02504 30.5893 8.95902L25.7242 8.2923L25.8354 7.48236L26.0796 5.70329C26.1457 5.22251 25.8091 4.7795 25.328 4.71361C24.847 4.64759 24.4033 4.98378 24.3374 5.46455L24.2127 6.37332L19.9099 5.78351C17.1077 5.39949 14.4956 7.14039 13.7073 9.76689L5.96211 8.70553C3.42685 8.35805 1.64702 6.01439 1.99479 3.48121L2.27593 1.43349C2.34187 0.95271 2.00541 0.509697 1.52424 0.443672C1.04307 0.377786 0.599697 0.713836 0.533618 1.19475L0.252612 3.24247C-0.226905 6.73556 2.2271 9.96703 5.72304 10.4462L13.4683 11.5076C13.5197 14.2491 15.5662 16.6286 18.3684 17.0126L22.6711 17.6023L22.5464 18.5109C22.4805 18.9917 22.8169 19.4347 23.2981 19.5007C23.7793 19.5667 24.2228 19.2306 24.2887 18.7499ZM18.6075 15.272C16.4697 14.9789 14.9692 13.0028 15.2623 10.867C15.5555 8.73103 17.5333 7.2315 19.671 7.52454L23.9738 8.11421L22.9103 15.8618L18.6075 15.2721V15.272Z" fill="white"/>
</svg>
