<svg width="31" height="30" viewBox="0 0 31 30" fill="none" xmlns="http://www.w3.org/2000/svg">
<path d="M25.4897 4.60381L25.4897 4.60379C22.8797 1.99376 19.4128 0.557617 15.7215 0.557617H15.7215H15.7215H15.7214H15.7214H15.7214H15.7214H15.7214H15.7214H15.7214H15.7214H15.7214H15.7214H15.7214H15.7214H15.7213H15.7213H15.7213H15.7213H15.7213H15.7213H15.7213H15.7213H15.7213H15.7213H15.7213H15.7213H15.7212H15.7212H15.7212H15.7212H15.7212H15.7212H15.7212H15.7212H15.7212H15.7212H15.7212H15.7212H15.7211H15.7211H15.7211H15.7211H15.7211H15.7211H15.7211H15.7211H15.7211H15.7211H15.7211H15.721H15.721H15.721H15.721H15.721H15.721H15.721H15.721H15.721H15.721H15.721H15.7209H15.7209H15.7209H15.7209H15.7209H15.7209H15.7209H15.7209H15.7209H15.7209H15.7208H15.7208H15.7208H15.7208H15.7208H15.7208H15.7208H15.7208H15.7208H15.7208H15.7207H15.7207H15.7207H15.7207H15.7207H15.7207H15.7207H15.7207H15.7207H15.7207H15.7206H15.7206H15.7206H15.7206H15.7206H15.7206H15.7206H15.7206H15.7206H15.7206H15.7206H15.7205H15.7205H15.7205H15.7205H15.7205H15.7205H15.7205H15.7205H15.7205H15.7205H15.7205H15.7204H15.7204H15.7204H15.7204H15.7204H15.7204H15.7204H15.7204H15.7204H15.7204H15.7204H15.7204H15.7203H15.7203H15.7203H15.7203H15.7203H15.7203H15.7203H15.7203H15.7203H15.7203H15.7203H15.7203H15.7202H15.7202H15.7202H15.7202H15.7202H15.7202H15.7202H15.7202H15.7202L25.4897 4.60381ZM25.4897 4.60381C28.0997 7.2136 29.5359 10.6811 29.5359 14.3723C29.5359 18.0632 28.0995 21.5307 25.4897 24.1405M25.4897 4.60381V24.1405M10.4339 1.60818L10.4338 1.60819C8.75111 2.30523 7.24418 3.31262 5.953 4.60379C3.34321 7.21359 1.90705 10.6811 1.90705 14.372C1.90705 16.5726 2.4382 18.7599 3.44397 20.7078L3.54276 20.8991L3.47162 21.1024L1.06558 27.9759C1.06557 27.976 1.06555 27.976 1.06554 27.9761C0.959359 28.2798 1.03359 28.605 1.26099 28.8323L1.26126 28.8326C1.4215 28.9929 1.62881 29.0756 1.84057 29.0756C1.93184 29.0756 2.0251 29.0603 2.11754 29.0279L8.99115 26.6221L9.19439 26.551L9.38572 26.6498C11.3336 27.6555 13.5209 28.1867 15.7215 28.1867C19.4124 28.1867 22.8797 26.7503 25.4897 24.1405C25.4897 24.1405 25.4897 24.1405 25.4897 24.1405M10.4339 1.60818L30.0359 14.3723C30.0359 18.1958 28.5468 21.7905 25.8433 24.4941L25.4897 24.1405M10.4339 1.60818C12.1163 0.911157 13.8944 0.557842 15.7201 0.557617L10.4339 1.60818ZM8.9162 25.8738L8.91612 25.8738L2.67122 28.0594L1.69105 28.4024L2.03412 27.4223L4.21991 21.1775C4.29534 20.9618 4.27705 20.7192 4.16786 20.5138C4.16784 20.5138 4.16782 20.5138 4.1678 20.5137L4.60923 20.2789L8.9162 25.8738ZM8.9162 25.8738C9.13138 25.7984 9.37392 25.8165 9.57945 25.9257M8.9162 25.8738L24.9726 23.6234M24.9726 23.6234C22.5022 26.094 19.215 27.4553 15.7215 27.4553C13.5838 27.4553 11.4605 26.9268 9.57945 25.9257M24.9726 23.6234C24.9726 23.6234 24.9726 23.6234 24.9726 23.6234M24.9726 23.6234L24.9726 23.6234M9.57945 25.9257L9.81437 25.4843L9.57967 25.9258C9.5796 25.9257 9.57952 25.9257 9.57945 25.9257ZM24.9726 23.6234C27.4432 21.153 28.8047 17.8658 28.8047 14.372C28.8047 10.8783 27.4432 7.59126 24.9726 5.12091V23.6234Z" fill="white" stroke="white"/>
</svg>
